<?xml version="1.0" standalone="no"?>
<!DOCTYPE svg PUBLIC "-//W3C//DTD SVG 20010904//EN"
 "http://www.w3.org/TR/2001/REC-SVG-20010904/DTD/svg10.dtd">
<svg version="1.0" xmlns="http://www.w3.org/2000/svg"
 width="842.000000pt" height="595.000000pt" viewBox="0 0 842.000000 595.000000"
 preserveAspectRatio="xMidYMid meet">

<g transform="translate(0.000000,595.000000) scale(0.100000,-0.100000)"
fill="#000000" stroke="none">
<path d="M4895 5350 c-40 -5 -40 -5 -48 -60 -17 -120 -93 -238 -327 -505 -292
-333 -400 -521 -400 -694 l0 -51 68 0 67 0 12 73 c25 155 98 283 236 413 112
106 197 165 489 342 137 83 278 172 315 198 76 53 243 216 243 236 0 7 -16 23
-35 36 l-35 22 -83 -83 c-101 -103 -148 -136 -457 -324 -135 -82 -258 -158
-275 -169 -24 -15 -19 -6 23 41 174 199 261 361 262 487 0 44 -3 46 -55 38z"/>
<path d="M3691 3996 c-50 -28 -50 -29 -51 -523 l0 -463 -890 0 c-968 0 -932 2
-958 -55 -15 -33 -15 -97 0 -130 26 -57 -10 -55 958 -55 l890 0 0 -95 c0 -165
14 -175 230 -175 l150 0 0 -105 c0 -124 12 -157 64 -176 22 -8 39 -24 49 -44
l15 -32 -66 -32 c-126 -62 -304 -173 -352 -219 -77 -75 -79 -132 -5 -184 22
-16 114 -55 205 -86 256 -90 359 -155 406 -257 58 -123 8 -302 -140 -503 -49
-66 -55 -86 -31 -96 26 -9 132 140 191 269 56 121 69 238 37 331 -23 69 -115
158 -218 211 -44 22 -147 64 -230 93 -168 58 -225 89 -225 122 0 47 122 135
375 270 89 47 103 58 125 100 15 29 36 52 53 59 45 19 57 55 57 174 l0 105
155 0 c98 0 164 4 180 12 43 19 55 56 55 163 l0 95 895 0 c973 0 937 -2 963
55 15 33 15 97 0 130 -26 57 10 55 -963 55 l-895 0 0 460 c0 500 0 503 -55
528 -39 18 -941 16 -974 -2z"/>
<path d="M3521 3866 c-13 -7 -30 -24 -37 -37 -17 -30 -18 -120 -2 -154 14 -32
56 -55 98 -55 l30 0 0 130 0 130 -32 0 c-18 -1 -44 -7 -57 -14z"/>
<path d="M4760 3750 l0 -130 25 0 c38 0 79 25 93 55 7 14 12 48 12 75 0 27 -5
61 -12 75 -14 30 -55 55 -93 55 l-25 0 0 -130z"/>
</g>
</svg>
